<?xml version="1.0" standalone="no"?>
<!DOCTYPE svg PUBLIC "-//W3C//DTD SVG 20010904//EN"
 "http://www.w3.org/TR/2001/REC-SVG-20010904/DTD/svg10.dtd">
<svg version="1.0" xmlns="http://www.w3.org/2000/svg"
 width="625.000000pt" height="399.000000pt" viewBox="0 0 625.000000 399.000000"
 preserveAspectRatio="xMidYMid meet">

<g transform="translate(0.000000,399.000000) scale(0.100000,-0.100000)"
fill="#000000" stroke="none">
<path d="M4523 3758 l-42 -42 -63 14 c-86 18 -280 19 -341 1 -26 -8 -89 -39
-140 -69 -86 -52 -97 -56 -173 -62 -71 -5 -87 -10 -130 -41 -94 -67 -151 -97
-206 -108 -83 -18 -118 -63 -118 -154 0 -49 5 -61 44 -113 43 -59 143 -159
188 -188 14 -9 46 -20 71 -25 43 -8 49 -6 62 12 9 13 15 45 15 77 0 30 4 61 8
68 12 18 41 4 48 -22 10 -43 -3 -231 -22 -316 l-19 -85 -335 -340 c-184 -187
-364 -378 -400 -424 -36 -46 -86 -110 -113 -142 -26 -32 -77 -105 -113 -161
-99 -153 -174 -269 -200 -309 -32 -47 -32 -142 -2 -245 l21 -75 -22 -67 c-34
-101 -91 -154 -231 -217 l-65 -30 -355 -6 c-352 -6 -356 -7 -470 -36 -114 -30
-115 -31 -143 -74 -30 -48 -30 -83 1 -107 13 -10 124 -12 537 -9 601 5 654 10
745 70 30 21 59 36 65 34 11 -4 44 -48 101 -137 20 -30 43 -61 52 -68 10 -7
49 -12 107 -12 l92 0 87 -56 87 -57 119 -5 c116 -5 118 -4 133 19 8 13 19 55
22 92 4 37 14 75 22 83 17 16 53 37 57 32 7 -8 66 -137 66 -143 0 -5 11 -23
26 -42 24 -31 29 -33 87 -33 57 0 166 -26 183 -43 11 -10 84 -8 127 4 47 13
53 28 39 96 -9 43 -30 78 -112 188 -99 133 -101 136 -102 193 -1 41 4 67 20
94 19 33 36 95 61 218 5 25 12 57 15 71 4 20 27 36 116 82 61 32 115 55 120
52 4 -3 11 -42 15 -87 4 -46 14 -117 22 -158 36 -180 42 -210 57 -292 26 -143
65 -235 104 -245 42 -12 307 -7 373 7 55 12 62 16 80 52 25 50 20 57 -75 105
-39 20 -99 55 -133 80 l-61 43 -6 93 c-6 105 -15 402 -18 587 l-2 125 83 120
83 120 -5 275 c-5 260 -13 377 -39 567 -9 65 -8 99 2 155 19 107 38 181 60
233 17 40 20 69 20 206 0 105 3 158 10 154 6 -3 19 -27 31 -53 43 -99 53 -110
66 -74 4 9 32 58 63 107 31 50 71 125 89 168 l34 77 -40 48 c-32 37 -68 62
-179 119 -173 89 -200 92 -261 31z"/>
</g>
</svg>
